<svg xmlns="http://www.w3.org/2000/svg" version="1.1" xmlns:xlink="http://www.w3.org/1999/xlink" xmlns:svgjs="http://svgjs.dev/svgjs" viewBox="0 0 14.16357421875 14.451746594797658"><g transform="matrix(0.8571428571428571,0,0,0.8571428571428571,2.0233677455357144,11.002172898294255)"><g transform="matrix(1,0,0,1,0,0)" clip-path="url(#SvgjsClipPath52076)"><g clip-path="url(#SvgjsClipPath5207442f4deb2-af26-4364-a3c5-816b54fa7a8c)"><path d=" M 6.3727989516908154 -10.451258313547658 L 5.901463408545025 -9.34733949674475 L 5.4301795639341846 -10.451258313547658 C 1.2167489654498072 -9.97082382825054 -0.6969757028213104 -5.17247600533362 2.1252473201389566 -1.9175362448357518 L 2.9611092332223388 -2.4683324362008117 L 2.5500024832941444 -1.5041030608347778 C 4.723719083832478 0.3062245375348862 7.564139991095402 0.025656588357282573 9.251786966026987 -1.5097898996793564 L 8.841817583867709 -2.4683324362008188 L 9.677731195486036 -1.9175362448357554 C 12.499954218446309 -5.171338637564705 10.586281248710144 -9.97082382825054 6.3727989516908154 -10.451258313547658 Z M 9.620707711435386 -2.3184066848437013 L 8.733715947285738 -2.903272210741294 C 10.75642112723299 -5.230378364478439 9.241395560501893 -8.918034862513903 6.128419976978725 -9.105442051710293 L 6.563411450054153 -10.121886947376568 C 10.277279105309638 -9.60965786308475 11.986639464920529 -5.206545339866152 9.620707711435386 -2.3184066848437013 Z M 2.9191300228423502 -1.594058511649047 L 3.3529841281488633 -2.6093660395464022 C 4.789841648985471 -1.2741820523924297 7.013732886560879 -1.274678300601975 8.449994387476144 -2.610503407315318 L 8.883848492782654 -1.5940585116490507 C 7.137001964117356 -0.20849434021659263 4.665976551507651 -0.20849434021659263 2.9191300228423502 -1.594058511649047 Z M 5.239360271431044 -10.122093741516373 L 5.674300045971526 -9.1056488458501 C 2.559101425445477 -8.919534120027476 1.0462988957172557 -5.228258724545455 3.0690040756645103 -2.9034790048810963 L 2.1820123115148613 -2.3186134789835045 C -0.18366094929552768 -5.2077861047049705 1.52559601324546 -9.60965786308475 5.239360271431044 -10.121886947376568 Z M 8.548841986301932 -3.1545270906018326 C 8.006007369319281 -4.424243108991724 6.6773550210855595 -7.533806589208147 6.135450977732022 -8.801247872060207 C 8.931514542007225 -8.6124965209551 10.346658539213514 -5.3053412401569915 8.548841986301932 -3.1543202964620303 Z M 5.901463408545025 -4.407182592457989 L 8.262638896814703 -2.850126116811941 C 6.936873021149227 -1.5996825050987873 4.866105494475777 -1.5996825050987873 3.5403396188103042 -2.850126116811941 Z M 5.901463408545025 -4.771760660930527 L 3.6391872176360964 -3.2794307510427974 C 5.942408648226001 -8.67065737277467 5.568783336137088 -7.7961766540831 5.901515107079975 -8.57408450948671 L 8.164928665757822 -3.2794307510427974 Z M 3.2541365293230706 -3.1545270906018326 C 1.4540452408736542 -5.308960137603543 2.874824378389574 -8.612703315094901 5.667527537892981 -8.801247872060207 Z" fill="#262626" transform="matrix(1,0,0,1,0,0)" fill-rule="nonzero"></path></g></g><g><path d=" M 0.993896484375 0.5236816406250002 Q 1.037109375 0.4812011718750002 1.0718994140625 0.4346923828125002 Q 1.106689453125 0.3881835937500002 1.1312255859375 0.3427734375000002 Q 1.15576171875 0.2973632812500002 1.1689453125 0.2556152343750002 Q 1.18212890625 0.21386718750000022 1.18212890625 0.17944335937500022 Q 1.18212890625 0.16479492187500022 1.17919921875 0.15087890625000022 Q 1.17626953125 0.13696289062500022 1.1685791015625 0.12634277343750022 Q 1.160888671875 0.11572265625000022 1.1480712890625 0.10949707031250022 Q 1.13525390625 0.10327148437500022 1.115478515625 0.10327148437500022 Q 1.07373046875 0.10327148437500022 1.0308837890625 0.13183593750000022 Q 0.988037109375 0.16040039062500022 0.948486328125 0.21459960937500022 Q 0.917724609375 0.2563476562500002 0.8924560546875 0.3087158203125002 Q 0.8671875 0.3610839843750002 0.84375 0.4204101562500002 Q 0.8203125 0.4797363281250002 0.797607421875 0.5441894531250002 Q 0.77490234375 0.6086425781250002 0.749267578125 0.6745605468750002 Q 0.71337890625 0.7668457031250002 0.6778564453125 0.8437500000000002 Q 0.642333984375 0.9206542968750002 0.6053466796875 0.9829101562500002 Q 0.568359375 1.0451660156250002 0.5299072265625 1.0931396484375002 Q 0.491455078125 1.1411132812500002 0.44970703125 1.1762695312500002 Q 0.48486328125 1.1865234375000002 0.5277099609375 1.1971435546875002 Q 0.570556640625 1.2077636718750002 0.617431640625 1.2165527343750002 Q 0.664306640625 1.2253417968750002 0.712646484375 1.2312011718750002 Q 0.760986328125 1.2370605468750002 0.80859375 1.2370605468750002 Q 0.892822265625 1.2370605468750002 0.955810546875 1.2158203125000002 Q 1.018798828125 1.1945800781250002 1.07080078125 1.1510009765625002 Q 1.122802734375 1.1074218750000002 1.1693115234375 1.0418701171875002 Q 1.2158203125 0.9763183593750002 1.266357421875 0.8869628906250002 L 1.3037109375 0.8195800781250002 L 1.323486328125 0.8334960937500002 L 1.285400390625 0.9008789062500002 Q 1.2158203125 1.0239257812500002 1.150634765625 1.1026611328125002 Q 1.08544921875 1.1813964843750002 1.0228271484375 1.2264404296875002 Q 0.960205078125 1.2714843750000002 0.8990478515625 1.2883300781250002 Q 0.837890625 1.3051757812500002 0.7763671875 1.3051757812500002 Q 0.734619140625 1.3051757812500002 0.6873779296875 1.2978515625000002 Q 0.64013671875 1.2905273437500002 0.5906982421875 1.2784423828125002 Q 0.541259765625 1.2663574218750002 0.489990234375 1.2509765625000002 Q 0.438720703125 1.2355957031250002 0.388916015625 1.2202148437500002 Q 0.334716796875 1.2524414062500002 0.276123046875 1.2674560546875002 Q 0.217529296875 1.2824707031250002 0.150146484375 1.2824707031250002 Q 0.10400390625 1.2824707031250002 0.0750732421875 1.2762451171875002 Q 0.046142578125 1.2700195312500002 0.029296875 1.2597656250000002 Q 0.012451171875 1.2495117187500002 0.0062255859375 1.2363281250000002 Q 0 1.2231445312500002 0 1.2099609375000002 Q 0 1.1835937500000002 0.016845703125 1.1674804687500002 Q 0.03369140625 1.1513671875000002 0.059326171875 1.1422119140625002 Q 0.0849609375 1.1330566406250002 0.11572265625 1.1297607421875002 Q 0.146484375 1.1264648437500002 0.17431640625 1.1264648437500002 Q 0.235107421875 1.1264648437500002 0.2896728515625 1.1363525390625002 Q 0.34423828125 1.1462402343750002 0.390380859375 1.1586914062500002 Q 0.4130859375 1.1323242187500002 0.4354248046875 1.0971679687500002 Q 0.457763671875 1.0620117187500002 0.4815673828125 1.0162353515625002 Q 0.50537109375 0.9704589843750002 0.531005859375 0.9129638671875002 Q 0.556640625 0.8554687500000002 0.5859375 0.7851562500000002 Q 0.632080078125 0.6752929687500002 0.6690673828125 0.5819091796875002 Q 0.7060546875 0.4885253906250002 0.7412109375 0.4123535156250002 Q 0.7763671875 0.3361816406250002 0.8126220703125 0.2757568359375002 Q 0.848876953125 0.21533203125000022 0.894287109375 0.17138671875000022 Q 0.94482421875 0.12231445312500022 0.999755859375 0.09887695312500022 Q 1.0546875 0.07543945312500022 1.10595703125 0.07543945312500022 Q 1.140380859375 0.07543945312500022 1.1634521484375 0.08496093750000022 Q 1.1865234375 0.09448242187500022 1.2000732421875 0.11096191406250022 Q 1.213623046875 0.12744140625000022 1.2191162109375 0.14941406250000022 Q 1.224609375 0.17138671875000022 1.224609375 0.19702148437500022 Q 1.224609375 0.2834472656250002 1.1700439453125 0.3717041015625002 Q 1.115478515625 0.4599609375000002 1.01220703125 0.5463867187500002 L 0.993896484375 0.5236816406250002 M 0.15087890625 1.2561035156250002 Q 0.211669921875 1.2561035156250002 0.257080078125 1.2451171875000002 Q 0.302490234375 1.2341308593750002 0.342041015625 1.2048339843750002 Q 0.31787109375 1.1975097656250002 0.2911376953125 1.1898193359375002 Q 0.264404296875 1.1821289062500002 0.23583984375 1.1759033203125002 Q 0.207275390625 1.1696777343750002 0.1783447265625 1.1656494140625002 Q 0.1494140625 1.1616210937500002 0.12158203125 1.1616210937500002 Q 0.078369140625 1.1616210937500002 0.0538330078125 1.1729736328125002 Q 0.029296875 1.1843261718750002 0.029296875 1.2099609375000002 Q 0.029296875 1.2194824218750002 0.0340576171875 1.2279052734375002 Q 0.038818359375 1.2363281250000002 0.052001953125 1.2425537109375002 Q 0.065185546875 1.2487792968750002 0.0889892578125 1.2524414062500002 Q 0.11279296875 1.2561035156250002 0.15087890625 1.2561035156250002 M 1.461181640625 0.3859863281250002 L 1.569580078125 0.3859863281250002 L 1.3828125 0.8986816406250002 Q 1.37255859375 0.9272460937500002 1.3623046875 0.9569091796875002 Q 1.35205078125 0.9865722656250002 1.3443603515625 1.0155029296875002 Q 1.336669921875 1.0444335937500002 1.3319091796875 1.0711669921875002 Q 1.3271484375 1.0979003906250002 1.3271484375 1.1206054687500002 Q 1.3271484375 1.1711425781250002 1.354248046875 1.2011718750000002 Q 1.38134765625 1.2312011718750002 1.43701171875 1.2312011718750002 Q 1.486083984375 1.2312011718750002 1.5322265625 1.2099609375000002 Q 1.578369140625 1.1887207031250002 1.6234130859375 1.1458740234375002 Q 1.66845703125 1.1030273437500002 1.7138671875 1.0385742187500002 Q 1.75927734375 0.9741210937500002 1.8076171875 0.8869628906250002 L 1.843505859375 0.8225097656250002 L 2.003173828125 0.3859863281250002 L 2.111572265625 0.3859863281250002 L 1.9248046875 0.8986816406250002 Q 1.91455078125 0.9272460937500002 1.904296875 0.9569091796875002 Q 1.89404296875 0.9865722656250002 1.8863525390625 1.0155029296875002 Q 1.878662109375 1.0444335937500002 1.8739013671875 1.0711669921875002 Q 1.869140625 1.0979003906250002 1.869140625 1.1206054687500002 Q 1.869140625 1.1711425781250002 1.8958740234375 1.2011718750000002 Q 1.922607421875 1.2312011718750002 1.97900390625 1.2312011718750002 Q 2.028076171875 1.2312011718750002 2.0738525390625 1.2099609375000002 Q 2.11962890625 1.1887207031250002 2.1646728515625 1.1458740234375002 Q 2.209716796875 1.1030273437500002 2.255126953125 1.0382080078125002 Q 2.300537109375 0.9733886718750002 2.349609375 0.8869628906250002 L 2.3876953125 0.8195800781250002 L 2.40673828125 0.8334960937500002 L 2.369384765625 0.9008789062500002 Q 2.316650390625 0.9960937500000002 2.2679443359375 1.0653076171875002 Q 2.21923828125 1.1345214843750002 2.1705322265625 1.1795654296875002 Q 2.121826171875 1.2246093750000002 2.0709228515625 1.2462158203125002 Q 2.02001953125 1.2678222656250002 1.962890625 1.2678222656250002 Q 1.918212890625 1.2678222656250002 1.8841552734375 1.2542724609375002 Q 1.85009765625 1.2407226562500002 1.8270263671875 1.2158203125000002 Q 1.803955078125 1.1909179687500002 1.792236328125 1.1557617187500002 Q 1.780517578125 1.1206054687500002 1.780517578125 1.0773925781250002 Q 1.780517578125 1.0488281250000002 1.78564453125 1.0155029296875002 Q 1.790771484375 0.9821777343750002 1.801025390625 0.9470214843750002 Q 1.751953125 1.0297851562500002 1.70654296875 1.0902099609375002 Q 1.6611328125 1.1506347656250002 1.61572265625 1.1901855468750002 Q 1.5703125 1.2297363281250002 1.5223388671875 1.2487792968750002 Q 1.474365234375 1.2678222656250002 1.4208984375 1.2678222656250002 Q 1.376220703125 1.2678222656250002 1.3421630859375 1.2542724609375002 Q 1.30810546875 1.2407226562500002 1.2850341796875 1.2158203125000002 Q 1.261962890625 1.1909179687500002 1.250244140625 1.1557617187500002 Q 1.238525390625 1.1206054687500002 1.238525390625 1.0773925781250002 Q 1.238525390625 1.0393066406250002 1.2476806640625 0.9938964843750002 Q 1.2568359375 0.9484863281250002 1.2744140625 0.8986816406250002 L 1.461181640625 0.3859863281250002 M 2.290283203125 1.0554199218750002 Q 2.290283203125 1.0180664062500002 2.29833984375 0.9810791015625002 Q 2.306396484375 0.9440917968750002 2.3203125 0.9118652343750002 Q 2.334228515625 0.8796386718750002 2.3525390625 0.8543701171875002 Q 2.370849609375 0.8291015625000002 2.391357421875 0.8144531250000002 L 2.700439453125 0.3647460937500002 Q 2.70849609375 0.3054199218750002 2.728271484375 0.2695312500000002 Q 2.748046875 0.23364257812500022 2.77587890625 0.23364257812500022 Q 2.7978515625 0.23364257812500022 2.8125 0.24536132812500022 Q 2.8271484375 0.2570800781250002 2.8271484375 0.2739257812500002 Q 2.8271484375 0.2863769531250002 2.8212890625 0.2958984375000002 Q 2.8154296875 0.3054199218750002 2.80078125 0.3178710937500002 Q 2.783935546875 0.3317871093750002 2.7725830078125 0.3442382812500002 Q 2.76123046875 0.3566894531250002 2.75390625 0.3691406250000002 Q 2.74658203125 0.3815917968750002 2.74365234375 0.3955078125000002 Q 2.74072265625 0.4094238281250002 2.74072265625 0.4255371093750002 Q 2.74072265625 0.4416503906250002 2.7432861328125 0.4592285156250002 Q 2.745849609375 0.4768066406250002 2.75244140625 0.5039062500000002 Q 2.759033203125 0.5310058593750002 2.7711181640625 0.5712890625000002 Q 2.783203125 0.6115722656250002 2.80224609375 0.6730957031250002 Q 2.8212890625 0.7346191406250002 2.8304443359375 0.7902832031250002 Q 2.839599609375 0.8459472656250002 2.839599609375 0.8986816406250002 Q 2.839599609375 1.1000976562500002 2.69384765625 1.2041015625000002 Q 2.650634765625 1.2348632812500002 2.6004638671875 1.2513427734375002 Q 2.55029296875 1.2678222656250002 2.4990234375 1.2678222656250002 Q 2.45068359375 1.2678222656250002 2.411865234375 1.2528076171875002 Q 2.373046875 1.2377929687500002 2.3463134765625 1.2103271484375002 Q 2.319580078125 1.1828613281250002 2.304931640625 1.1436767578125002 Q 2.290283203125 1.1044921875000002 2.290283203125 1.0554199218750002 M 2.696044921875 0.4174804687500002 L 2.4345703125 0.7990722656250002 Q 2.4580078125 0.7990722656250002 2.471923828125 0.8144531250000002 Q 2.48583984375 0.8298339843750002 2.48583984375 0.8554687500000002 Q 2.48583984375 0.8686523437500002 2.482177734375 0.8807373046875002 Q 2.478515625 0.8928222656250002 2.471923828125 0.9016113281250002 Q 2.46533203125 0.9104003906250002 2.45654296875 0.9158935546875002 Q 2.44775390625 0.9213867187500002 2.438232421875 0.9213867187500002 Q 2.42578125 0.9213867187500002 2.4169921875 0.9162597656250002 Q 2.408203125 0.9111328125000002 2.39501953125 0.9111328125000002 Q 2.379638671875 0.9111328125000002 2.3660888671875 0.9217529296875002 Q 2.3525390625 0.9323730468750002 2.3426513671875 0.9514160156250002 Q 2.332763671875 0.9704589843750002 2.3272705078125 0.9964599609375002 Q 2.32177734375 1.0224609375000002 2.32177734375 1.0532226562500002 Q 2.32177734375 1.0942382812500002 2.3331298828125 1.1271972656250002 Q 2.344482421875 1.1601562500000002 2.3660888671875 1.1832275390625002 Q 2.3876953125 1.2062988281250002 2.4180908203125 1.2187500000000002 Q 2.448486328125 1.2312011718750002 2.4873046875 1.2312011718750002 Q 2.53857421875 1.2312011718750002 2.58251953125 1.2092285156250002 Q 2.62646484375 1.1872558593750002 2.659423828125 1.1455078125000002 Q 2.738525390625 1.0444335937500002 2.738525390625 0.8408203125000002 Q 2.738525390625 0.8159179687500002 2.7374267578125 0.7913818359375002 Q 2.736328125 0.7668457031250002 2.7337646484375 0.7401123046875002 Q 2.731201171875 0.7133789062500002 2.726806640625 0.6826171875000002 Q 2.722412109375 0.6518554687500002 2.716552734375 0.6130371093750002 Q 2.706298828125 0.5478515625000002 2.701171875 0.5039062500000002 Q 2.696044921875 0.4599609375000002 2.696044921875 0.4328613281250002 L 2.696044921875 0.4174804687500002 M 3.081298828125 0.3859863281250002 L 3.295166015625 0.3859863281250002 L 3.36474609375 0.19409179687500022 L 3.47314453125 0.19409179687500022 L 3.403564453125 0.3859863281250002 L 3.623291015625 0.3859863281250002 L 3.623291015625 0.4152832031250002 L 3.392578125 0.4152832031250002 L 3.216796875 0.8986816406250002 Q 3.20654296875 0.9272460937500002 3.1966552734375 0.9572753906250002 Q 3.186767578125 0.9873046875000002 3.1790771484375 1.0162353515625002 Q 3.17138671875 1.0451660156250002 3.1666259765625 1.0718994140625002 Q 3.161865234375 1.0986328125000002 3.161865234375 1.1206054687500002 Q 3.161865234375 1.1711425781250002 3.1893310546875 1.2011718750000002 Q 3.216796875 1.2312011718750002 3.2724609375 1.2312011718750002 Q 3.32666015625 1.2312011718750002 3.3779296875 1.2106933593750002 Q 3.42919921875 1.1901855468750002 3.47900390625 1.1477050781250002 Q 3.52880859375 1.1052246093750002 3.577880859375 1.0404052734375002 Q 3.626953125 0.9755859375000002 3.6767578125 0.8869628906250002 L 3.71484375 0.8195800781250002 L 3.734619140625 0.8334960937500002 L 3.696533203125 0.9008789062500002 Q 3.638671875 1.0034179687500002 3.58447265625 1.0733642578125002 Q 3.5302734375 1.1433105468750002 3.4771728515625 1.1865234375000002 Q 3.424072265625 1.2297363281250002 3.3695068359375 1.2487792968750002 Q 3.31494140625 1.2678222656250002 3.25634765625 1.2678222656250002 Q 3.211669921875 1.2678222656250002 3.17724609375 1.2542724609375002 Q 3.142822265625 1.2407226562500002 3.1197509765625 1.2158203125000002 Q 3.0966796875 1.1909179687500002 3.0845947265625 1.1557617187500002 Q 3.072509765625 1.1206054687500002 3.072509765625 1.0773925781250002 Q 3.072509765625 1.0393066406250002 3.081298828125 0.9938964843750002 Q 3.090087890625 0.9484863281250002 3.1083984375 0.8986816406250002 L 3.2841796875 0.4152832031250002 L 3.081298828125 0.4152832031250002 L 3.081298828125 0.3859863281250002 M 3.6591796875 0.3859863281250002 L 3.872314453125 0.3859863281250002 L 3.90234375 0.3039550781250002 Q 3.955810546875 0.15673828125000022 4.040771484375 0.07836914062500022 Q 4.125732421875 2.220446049250313e-16 4.23046875 2.220446049250313e-16 Q 4.263427734375 2.220446049250313e-16 4.291259765625 0.008422851562500222 Q 4.319091796875 0.016845703125000222 4.3388671875 0.03222656250000022 Q 4.358642578125 0.04760742187500022 4.3699951171875 0.06848144531250022 Q 4.38134765625 0.08935546875000022 4.38134765625 0.11425781250000022 Q 4.38134765625 0.14941406250000022 4.36376953125 0.16882324218750022 Q 4.34619140625 0.18823242187500022 4.3154296875 0.18823242187500022 Q 4.29052734375 0.18823242187500022 4.2762451171875 0.17395019531250022 Q 4.261962890625 0.15966796875000022 4.261962890625 0.13476562500000022 Q 4.261962890625 0.11132812500000022 4.2744140625 0.09667968750000022 Q 4.286865234375 0.08203125000000022 4.307373046875 0.08203125000000022 Q 4.31396484375 0.08203125000000022 4.322021484375 0.08496093750000022 Q 4.323486328125 0.08569335937500022 4.32568359375 0.08642578125000022 Q 4.327880859375 0.08715820312500022 4.329345703125 0.08715820312500022 Q 4.3359375 0.08715820312500022 4.3359375 0.07836914062500022 Q 4.3359375 0.06738281250000022 4.3267822265625 0.05932617187500022 Q 4.317626953125 0.05126953125000022 4.3033447265625 0.04577636718750022 Q 4.2890625 0.04028320312500022 4.2718505859375 0.03735351562500022 Q 4.254638671875 0.03442382812500022 4.238525390625 0.03442382812500022 Q 4.203369140625 0.03442382812500022 4.17333984375 0.04907226562500022 Q 4.143310546875 0.06372070312500022 4.1162109375 0.09558105468750022 Q 4.089111328125 0.12744140625000022 4.0634765625 0.17761230468750022 Q 4.037841796875 0.22778320312500022 4.01220703125 0.2980957031250002 L 3.97998046875 0.3859863281250002 L 4.201171875 0.3859863281250002 L 4.201171875 0.4152832031250002 L 3.9697265625 0.4152832031250002 L 3.5244140625 1.6398925781250002 L 3.416015625 1.6398925781250002 L 3.861328125 0.4152832031250002 L 3.6591796875 0.4152832031250002 L 3.6591796875 0.3859863281250002 M 4.4150390625 0.3859863281250002 L 4.5234375 0.3859863281250002 L 4.336669921875 0.8986816406250002 Q 4.326416015625 0.9272460937500002 4.316162109375 0.9569091796875002 Q 4.305908203125 0.9865722656250002 4.2982177734375 1.0155029296875002 Q 4.29052734375 1.0444335937500002 4.2857666015625 1.0711669921875002 Q 4.281005859375 1.0979003906250002 4.281005859375 1.1206054687500002 Q 4.281005859375 1.1711425781250002 4.30810546875 1.2011718750000002 Q 4.335205078125 1.2312011718750002 4.390869140625 1.2312011718750002 Q 4.43994140625 1.2312011718750002 4.486083984375 1.2099609375000002 Q 4.5322265625 1.1887207031250002 4.5772705078125 1.1458740234375002 Q 4.622314453125 1.1030273437500002 4.667724609375 1.0385742187500002 Q 4.713134765625 0.9741210937500002 4.761474609375 0.8869628906250002 L 4.79736328125 0.8225097656250002 L 4.95703125 0.3859863281250002 L 5.0654296875 0.3859863281250002 L 4.878662109375 0.8986816406250002 Q 4.868408203125 0.9272460937500002 4.858154296875 0.9569091796875002 Q 4.847900390625 0.9865722656250002 4.8402099609375 1.0155029296875002 Q 4.83251953125 1.0444335937500002 4.8277587890625 1.0711669921875002 Q 4.822998046875 1.0979003906250002 4.822998046875 1.1206054687500002 Q 4.822998046875 1.1711425781250002 4.8497314453125 1.2011718750000002 Q 4.87646484375 1.2312011718750002 4.932861328125 1.2312011718750002 Q 4.98193359375 1.2312011718750002 5.0277099609375 1.2099609375000002 Q 5.073486328125 1.1887207031250002 5.1185302734375 1.1458740234375002 Q 5.16357421875 1.1030273437500002 5.208984375 1.0382080078125002 Q 5.25439453125 0.9733886718750002 5.303466796875 0.8869628906250002 L 5.341552734375 0.8195800781250002 L 5.360595703125 0.8334960937500002 L 5.3232421875 0.9008789062500002 Q 5.2705078125 0.9960937500000002 5.2218017578125 1.0653076171875002 Q 5.173095703125 1.1345214843750002 5.1243896484375 1.1795654296875002 Q 5.07568359375 1.2246093750000002 5.0247802734375 1.2462158203125002 Q 4.973876953125 1.2678222656250002 4.916748046875 1.2678222656250002 Q 4.8720703125 1.2678222656250002 4.8380126953125 1.2542724609375002 Q 4.803955078125 1.2407226562500002 4.7808837890625 1.2158203125000002 Q 4.7578125 1.1909179687500002 4.74609375 1.1557617187500002 Q 4.734375 1.1206054687500002 4.734375 1.0773925781250002 Q 4.734375 1.0488281250000002 4.739501953125 1.0155029296875002 Q 4.74462890625 0.9821777343750002 4.7548828125 0.9470214843750002 Q 4.705810546875 1.0297851562500002 4.660400390625 1.0902099609375002 Q 4.614990234375 1.1506347656250002 4.569580078125 1.1901855468750002 Q 4.524169921875 1.2297363281250002 4.4761962890625 1.2487792968750002 Q 4.42822265625 1.2678222656250002 4.374755859375 1.2678222656250002 Q 4.330078125 1.2678222656250002 4.2960205078125 1.2542724609375002 Q 4.261962890625 1.2407226562500002 4.2388916015625 1.2158203125000002 Q 4.2158203125 1.1909179687500002 4.2041015625 1.1557617187500002 Q 4.1923828125 1.1206054687500002 4.1923828125 1.0773925781250002 Q 4.1923828125 1.0393066406250002 4.2015380859375 0.9938964843750002 Q 4.210693359375 0.9484863281250002 4.228271484375 0.8986816406250002 L 4.4150390625 0.3859863281250002 M 5.6396484375 2.220446049250313e-16 L 5.748779296875 2.220446049250313e-16 L 5.42138671875 0.8986816406250002 Q 5.4111328125 0.9272460937500002 5.40087890625 0.9569091796875002 Q 5.390625 0.9865722656250002 5.3829345703125 1.0155029296875002 Q 5.375244140625 1.0444335937500002 5.3704833984375 1.0711669921875002 Q 5.36572265625 1.0979003906250002 5.36572265625 1.1206054687500002 Q 5.36572265625 1.1711425781250002 5.3924560546875 1.2011718750000002 Q 5.419189453125 1.2312011718750002 5.4755859375 1.2312011718750002 Q 5.524658203125 1.2312011718750002 5.5704345703125 1.2099609375000002 Q 5.6162109375 1.1887207031250002 5.6612548828125 1.1458740234375002 Q 5.706298828125 1.1030273437500002 5.751708984375 1.0382080078125002 Q 5.797119140625 0.9733886718750002 5.84619140625 0.8869628906250002 L 5.88427734375 0.8195800781250002 L 5.904052734375 0.8334960937500002 L 5.865966796875 0.9008789062500002 Q 5.8125 0.9953613281250002 5.7637939453125 1.0645751953125002 Q 5.715087890625 1.1337890625000002 5.6663818359375 1.1788330078125002 Q 5.61767578125 1.2238769531250002 5.567138671875 1.2458496093750002 Q 5.5166015625 1.2678222656250002 5.45947265625 1.2678222656250002 Q 5.414794921875 1.2678222656250002 5.3807373046875 1.2542724609375002 Q 5.3466796875 1.2407226562500002 5.3236083984375 1.2158203125000002 Q 5.300537109375 1.1909179687500002 5.288818359375 1.1557617187500002 Q 5.277099609375 1.1206054687500002 5.277099609375 1.0773925781250002 Q 5.277099609375 1.0393066406250002 5.285888671875 0.9942626953125002 Q 5.294677734375 0.9492187500000002 5.31298828125 0.8986816406250002 L 5.6396484375 2.220446049250313e-16 M 6.76318359375 0.3845214843750002 Q 6.753662109375 0.3676757812500002 6.74853515625 0.3457031250000002 Q 6.743408203125 0.3237304687500002 6.743408203125 0.2958984375000002 Q 6.743408203125 0.24462890625000022 6.762451171875 0.20361328125000022 Q 6.781494140625 0.16259765625000022 6.8155517578125 0.13403320312500022 Q 6.849609375 0.10546875000000022 6.8953857421875 0.09008789062500022 Q 6.941162109375 0.07470703125000022 6.995361328125 0.07470703125000022 Q 7.021728515625 0.07470703125000022 7.0411376953125 0.07800292968750022 Q 7.060546875 0.08129882812500022 7.078125 0.08642578125000022 Q 7.095703125 0.09155273437500022 7.1143798828125 0.09704589843750022 Q 7.133056640625 0.10253906250000022 7.157958984375 0.10766601562500022 Q 7.182861328125 0.11279296875000022 7.216552734375 0.11608886718750022 Q 7.250244140625 0.11938476562500022 7.298583984375 0.11938476562500022 Q 7.3359375 0.11938476562500022 7.36376953125 0.11682128906250022 Q 7.3916015625 0.11425781250000022 7.41650390625 0.10876464843750022 Q 7.44140625 0.10327148437500022 7.46630859375 0.09484863281250022 Q 7.4912109375 0.08642578125000022 7.521240234375 0.07543945312500022 L 7.521240234375 0.08862304687500022 Q 7.50146484375 0.09301757812500022 7.4776611328125 0.10620117187500022 Q 7.453857421875 0.11938476562500022 7.4307861328125 0.13732910156250022 Q 7.40771484375 0.15527343750000022 7.38720703125 0.17541503906250022 Q 7.36669921875 0.19555664062500022 7.353515625 0.21313476562500022 Q 7.3447265625 0.22412109375000022 7.336669921875 0.23767089843750022 Q 7.32861328125 0.2512207031250002 7.3187255859375 0.2731933593750002 Q 7.308837890625 0.2951660156250002 7.295654296875 0.3292236328125002 Q 7.282470703125 0.3632812500000002 7.263427734375 0.4152832031250002 Q 7.244384765625 0.4672851562500002 7.2176513671875 0.5408935546875002 Q 7.19091796875 0.6145019531250002 7.155029296875 0.7148437500000002 Q 7.232666015625 0.6979980468750002 7.3150634765625 0.6767578125000002 Q 7.3974609375 0.6555175781250002 7.482421875 0.6276855468750002 Q 7.510986328125 0.5544433593750002 7.547607421875 0.4848632812500002 Q 7.584228515625 0.4152832031250002 7.62744140625 0.3541259765625002 Q 7.670654296875 0.2929687500000002 7.7193603515625 0.24169921875000022 Q 7.76806640625 0.19042968750000022 7.8193359375 0.15344238281250022 Q 7.87060546875 0.11645507812500022 7.924072265625 0.09594726562500022 Q 7.9775390625 0.07543945312500022 8.031005859375 0.07543945312500022 Q 8.061767578125 0.07543945312500022 8.0826416015625 0.08239746093750022 Q 8.103515625 0.08935546875000022 8.11669921875 0.10180664062500022 Q 8.1298828125 0.11425781250000022 8.1353759765625 0.13146972656250022 Q 8.140869140625 0.14868164062500022 8.140869140625 0.16992187500000022 Q 8.140869140625 0.22192382812500022 8.1112060546875 0.2724609375000002 Q 8.08154296875 0.3229980468750002 8.0328369140625 0.3695068359375002 Q 7.984130859375 0.4160156250000002 7.921875 0.4577636718750002 Q 7.859619140625 0.4995117187500002 7.79443359375 0.5332031250000002 Q 7.746826171875 0.5581054687500002 7.6981201171875 0.5793457031250002 Q 7.6494140625 0.6005859375000002 7.600341796875 0.6196289062500002 Q 7.578369140625 0.6760253906250002 7.560791015625 0.7331542968750002 Q 7.543212890625 0.7902832031250002 7.53076171875 0.8470458984375002 Q 7.518310546875 0.9038085937500002 7.51171875 0.9587402343750002 Q 7.505126953125 1.0136718750000002 7.505126953125 1.0649414062500002 Q 7.505126953125 1.1206054687500002 7.5128173828125 1.1557617187500002 Q 7.5205078125 1.1909179687500002 7.5355224609375 1.2110595703125002 Q 7.550537109375 1.2312011718750002 7.5714111328125 1.2388916015625002 Q 7.59228515625 1.2465820312500002 7.61865234375 1.2465820312500002 Q 7.718994140625 1.2465820312500002 7.8145751953125 1.1557617187500002 Q 7.91015625 1.0649414062500002 8.01123046875 0.8869628906250002 L 8.04931640625 0.8195800781250002 L 8.068359375 0.8334960937500002 L 8.031005859375 0.9008789062500002 Q 7.975341796875 0.9990234375000002 7.9229736328125 1.0711669921875002 Q 7.87060546875 1.1433105468750002 7.8189697265625 1.1901855468750002 Q 7.767333984375 1.2370605468750002 7.7149658203125 1.2597656250000002 Q 7.66259765625 1.2824707031250002 7.606201171875 1.2824707031250002 Q 7.546875 1.2824707031250002 7.5084228515625 1.2593994140625002 Q 7.469970703125 1.2363281250000002 7.447265625 1.1978759765625002 Q 7.424560546875 1.1594238281250002 7.4154052734375 1.1085205078125002 Q 7.40625 1.0576171875000002 7.40625 1.0026855468750002 Q 7.40625 0.9213867187500002 7.42236328125 0.8360595703125002 Q 7.4384765625 0.7507324218750002 7.46923828125 0.6650390625000002 Q 7.385009765625 0.6914062500000002 7.302978515625 0.7115478515625002 Q 7.220947265625 0.7316894531250002 7.143310546875 0.7478027343750002 Q 7.090576171875 0.8847656250000002 7.037109375 0.9854736328125002 Q 6.983642578125 1.0861816406250002 6.9239501953125 1.1520996093750002 Q 6.8642578125 1.2180175781250002 6.7965087890625 1.2502441406250002 Q 6.728759765625 1.2824707031250002 6.648193359375 1.2824707031250002 Q 6.591796875 1.2824707031250002 6.5504150390625 1.2681884765625002 Q 6.509033203125 1.2539062500000002 6.481201171875 1.2279052734375002 Q 6.453369140625 1.2019042968750002 6.4398193359375 1.1663818359375002 Q 6.42626953125 1.1308593750000002 6.42626953125 1.0876464843750002 Q 6.42626953125 1.0231933593750002 6.45556640625 0.9744873046875002 Q 6.48486328125 0.9257812500000002 6.5364990234375 0.8895263671875002 Q 6.588134765625 0.8532714843750002 6.6573486328125 0.8276367187500002 Q 6.7265625 0.8020019531250002 6.80712890625 0.7836914062500002 Q 6.849609375 0.7749023437500002 6.9041748046875 0.7646484375000002 Q 6.958740234375 0.7543945312500002 7.023193359375 0.7419433593750002 Q 7.046630859375 0.6796875000000002 7.0653076171875 0.6309814453125002 Q 7.083984375 0.5822753906250002 7.0986328125 0.5438232421875002 Q 7.11328125 0.5053710937500002 7.1253662109375 0.4757080078125002 Q 7.137451171875 0.4460449218750002 7.1488037109375 0.4215087890625002 Q 7.16015625 0.3969726562500002 7.1715087890625 0.3760986328125002 Q 7.182861328125 0.3552246093750002 7.196044921875 0.3347167968750002 Q 7.2099609375 0.3127441406250002 7.2286376953125 0.2878417968750002 Q 7.247314453125 0.2629394531250002 7.2703857421875 0.23693847656250022 Q 7.29345703125 0.21093750000000022 7.3201904296875 0.18603515625000022 Q 7.346923828125 0.16113281250000022 7.377685546875 0.13989257812500022 Q 7.327880859375 0.15527343750000022 7.276611328125 0.16406250000000022 Q 7.225341796875 0.17285156250000022 7.18359375 0.17285156250000022 Q 7.144775390625 0.17285156250000022 7.1063232421875 0.16552734375000022 Q 7.06787109375 0.15820312500000022 7.0323486328125 0.14941406250000022 Q 6.996826171875 0.14062500000000022 6.966064453125 0.13330078125000022 Q 6.935302734375 0.12597656250000022 6.91259765625 0.12597656250000022 Q 6.884765625 0.12597656250000022 6.8594970703125 0.13806152343750022 Q 6.834228515625 0.15014648437500022 6.815185546875 0.17248535156250022 Q 6.796142578125 0.19482421875000022 6.78515625 0.22595214843750022 Q 6.774169921875 0.2570800781250002 6.774169921875 0.2951660156250002 Q 6.774169921875 0.3391113281250002 6.788818359375 0.3698730468750002 L 6.76318359375 0.3845214843750002 M 6.637939453125 1.2539062500000002 Q 6.67822265625 1.2539062500000002 6.711181640625 1.2454833984375002 Q 6.744140625 1.2370605468750002 6.7730712890625 1.2161865234375002 Q 6.802001953125 1.1953125000000002 6.828369140625 1.1605224609375002 Q 6.854736328125 1.1257324218750002 6.882568359375 1.0722656250000002 Q 6.910400390625 1.0187988281250002 6.9415283203125 0.9455566406250002 Q 6.97265625 0.8723144531250002 7.010009765625 0.7749023437500002 Q 6.955078125 0.7866210937500002 6.9052734375 0.7961425781250002 Q 6.85546875 0.8056640625000002 6.8115234375 0.8159179687500002 Q 6.740478515625 0.8320312500000002 6.6767578125 0.8532714843750002 Q 6.613037109375 0.8745117187500002 6.564697265625 0.9063720703125002 Q 6.516357421875 0.9382324218750002 6.4881591796875 0.9829101562500002 Q 6.4599609375 1.0275878906250002 6.4599609375 1.0905761718750002 Q 6.4599609375 1.1257324218750002 6.4705810546875 1.1557617187500002 Q 6.481201171875 1.1857910156250002 6.503173828125 1.2073974609375002 Q 6.525146484375 1.2290039062500002 6.5584716796875 1.2414550781250002 Q 6.591796875 1.2539062500000002 6.637939453125 1.2539062500000002 M 8.039794921875 0.10327148437500022 Q 7.98486328125 0.10327148437500022 7.9273681640625 0.14135742187500022 Q 7.869873046875 0.17944335937500022 7.814208984375 0.24426269531250022 Q 7.758544921875 0.3090820312500002 7.7076416015625 0.3958740234375002 Q 7.65673828125 0.4826660156250002 7.616455078125 0.5793457031250002 Q 7.658203125 0.5625000000000002 7.6995849609375 0.5434570312500002 Q 7.740966796875 0.5244140625000002 7.78125 0.5031738281250002 Q 7.843505859375 0.4709472656250002 7.9024658203125 0.4321289062500002 Q 7.96142578125 0.3933105468750002 8.007568359375 0.3504638671875002 Q 8.0537109375 0.3076171875000002 8.0819091796875 0.2622070312500002 Q 8.110107421875 0.21679687500000022 8.110107421875 0.17138671875000022 Q 8.110107421875 0.13989257812500022 8.093994140625 0.12158203125000022 Q 8.077880859375 0.10327148437500022 8.039794921875 0.10327148437500022 M 8.047119140625 0.8261718750000002 Q 8.073486328125 0.7470703125000002 8.110107421875 0.6822509765625002 Q 8.146728515625 0.6174316406250002 8.1895751953125 0.5668945312500002 Q 8.232421875 0.5163574218750002 8.2796630859375 0.4797363281250002 Q 8.326904296875 0.4431152343750002 8.3741455078125 0.4193115234375002 Q 8.42138671875 0.3955078125000002 8.4671630859375 0.3837890625000002 Q 8.512939453125 0.3720703125000002 8.55322265625 0.3720703125000002 Q 8.594970703125 0.3720703125000002 8.622802734375 0.3848876953125002 Q 8.650634765625 0.3977050781250002 8.6678466796875 0.4207763671875002 Q 8.68505859375 0.4438476562500002 8.6923828125 0.4764404296875002 Q 8.69970703125 0.5090332031250002 8.69970703125 0.5485839843750002 L 8.759033203125 0.3859863281250002 L 8.867431640625 0.3859863281250002 L 8.6806640625 0.8986816406250002 Q 8.67041015625 0.9272460937500002 8.66015625 0.9569091796875002 Q 8.64990234375 0.9865722656250002 8.6422119140625 1.0155029296875002 Q 8.634521484375 1.0444335937500002 8.6297607421875 1.0711669921875002 Q 8.625 1.0979003906250002 8.625 1.1206054687500002 Q 8.625 1.1711425781250002 8.6517333984375 1.2011718750000002 Q 8.678466796875 1.2312011718750002 8.73486328125 1.2312011718750002 Q 8.783935546875 1.2312011718750002 8.830078125 1.2103271484375002 Q 8.876220703125 1.1894531250000002 8.9212646484375 1.1466064453125002 Q 8.96630859375 1.1037597656250002 9.01171875 1.0389404296875002 Q 9.05712890625 0.9741210937500002 9.10546875 0.8869628906250002 L 9.142822265625 0.8195800781250002 L 9.16259765625 0.8334960937500002 L 9.12451171875 0.9008789062500002 Q 9.071044921875 0.9960937500000002 9.0223388671875 1.0653076171875002 Q 8.9736328125 1.1345214843750002 8.92529296875 1.1795654296875002 Q 8.876953125 1.2246093750000002 8.826416015625 1.2462158203125002 Q 8.77587890625 1.2678222656250002 8.71875 1.2678222656250002 Q 8.674072265625 1.2678222656250002 8.6400146484375 1.2542724609375002 Q 8.60595703125 1.2407226562500002 8.5828857421875 1.2158203125000002 Q 8.559814453125 1.1909179687500002 8.548095703125 1.1557617187500002 Q 8.536376953125 1.1206054687500002 8.536376953125 1.0773925781250002 Q 8.536376953125 1.0488281250000002 8.54150390625 1.0155029296875002 Q 8.546630859375 0.9821777343750002 8.556884765625 0.9462890625000002 Q 8.4609375 1.1074218750000002 8.3671875 1.1876220703125002 Q 8.2734375 1.2678222656250002 8.1767578125 1.2678222656250002 Q 8.13134765625 1.2678222656250002 8.0994873046875 1.2513427734375002 Q 8.067626953125 1.2348632812500002 8.047119140625 1.2052001953125002 Q 8.026611328125 1.1755371093750002 8.01708984375 1.1356201171875002 Q 8.007568359375 1.0957031250000002 8.007568359375 1.0480957031250002 Q 8.007568359375 0.9968261718750002 8.017822265625 0.9400634765625002 Q 8.028076171875 0.8833007812500002 8.047119140625 0.8261718750000002 M 8.203125 1.2312011718750002 Q 8.24267578125 1.2312011718750002 8.28369140625 1.2103271484375002 Q 8.32470703125 1.1894531250000002 8.3653564453125 1.1531982421875002 Q 8.406005859375 1.1169433593750002 8.444091796875 1.0682373046875002 Q 8.482177734375 1.0195312500000002 8.5162353515625 0.9642333984375002 Q 8.55029296875 0.9089355468750002 8.578857421875 0.8503417968750002 Q 8.607421875 0.7917480468750002 8.6282958984375 0.7349853515625002 Q 8.649169921875 0.6782226562500002 8.6605224609375 0.6265869140625002 Q 8.671875 0.5749511718750002 8.671875 0.5339355468750002 Q 8.671875 0.4965820312500002 8.6627197265625 0.4713134765625002 Q 8.653564453125 0.4460449218750002 8.6385498046875 0.4302978515625002 Q 8.62353515625 0.4145507812500002 8.6041259765625 0.4079589843750002 Q 8.584716796875 0.4013671875000002 8.564208984375 0.4013671875000002 Q 8.523193359375 0.4013671875000002 8.4730224609375 0.4266357421875002 Q 8.4228515625 0.4519042968750002 8.370849609375 0.5035400390625002 Q 8.31884765625 0.5551757812500002 8.2686767578125 0.6339111328125002 Q 8.218505859375 0.7126464843750002 8.1767578125 0.8188476562500002 Q 8.142333984375 0.9074707031250002 8.1251220703125 0.9829101562500002 Q 8.10791015625 1.0583496093750002 8.10791015625 1.1088867187500002 Q 8.10791015625 1.1660156250000002 8.1309814453125 1.1986083984375002 Q 8.154052734375 1.2312011718750002 8.203125 1.2312011718750002 M 9.221923828125 0.8986816406250002 Q 9.193359375 0.9777832031250002 9.1798095703125 1.0312500000000002 Q 9.166259765625 1.0847167968750002 9.166259765625 1.1206054687500002 Q 9.166259765625 1.1733398437500002 9.194091796875 1.2022705078125002 Q 9.221923828125 1.2312011718750002 9.275390625 1.2312011718750002 Q 9.3251953125 1.2312011718750002 9.377197265625 1.2052001953125002 Q 9.42919921875 1.1791992187500002 9.478271484375 1.1330566406250002 Q 9.52734375 1.0869140625000002 9.56982421875 1.0242919921875002 Q 9.6123046875 0.9616699218750002 9.643798828125 0.8891601562500002 Q 9.673095703125 0.8210449218750002 9.6888427734375 0.7489013671875002 Q 9.70458984375 0.6767578125000002 9.70458984375 0.5998535156250002 Q 9.70458984375 0.5441894531250002 9.6976318359375 0.5108642578125002 Q 9.690673828125 0.4775390625000002 9.681884765625 0.4577636718750002 Q 9.673095703125 0.4379882812500002 9.6661376953125 0.4273681640625002 Q 9.6591796875 0.4167480468750002 9.6591796875 0.4064941406250002 Q 9.6591796875 0.3933105468750002 9.6705322265625 0.3830566406250002 Q 9.681884765625 0.3728027343750002 9.696533203125 0.3728027343750002 Q 9.712646484375 0.3728027343750002 9.7239990234375 0.3859863281250002 Q 9.7353515625 0.3991699218750002 9.74267578125 0.4218750000000002 Q 9.75 0.4445800781250002 9.753662109375 0.4753417968750002 Q 9.75732421875 0.5061035156250002 9.75732421875 0.5405273437500002 Q 9.75732421875 0.5903320312500002 9.7503662109375 0.6394042968750002 Q 9.743408203125 0.6884765625000002 9.7320556640625 0.7346191406250002 Q 9.720703125 0.7807617187500002 9.705322265625 0.8232421875000002 Q 9.68994140625 0.8657226562500002 9.673095703125 0.9030761718750002 Q 9.636474609375 0.9829101562500002 9.5888671875 1.0499267578125002 Q 9.541259765625 1.1169433593750002 9.4866943359375 1.1652832031250002 Q 9.43212890625 1.2136230468750002 9.37353515625 1.2407226562500002 Q 9.31494140625 1.2678222656250002 9.255615234375 1.2678222656250002 Q 9.2138671875 1.2678222656250002 9.180908203125 1.2542724609375002 Q 9.14794921875 1.2407226562500002 9.1248779296875 1.2158203125000002 Q 9.101806640625 1.1909179687500002 9.0897216796875 1.1557617187500002 Q 9.07763671875 1.1206054687500002 9.07763671875 1.0773925781250002 Q 9.07763671875 1.0400390625000002 9.0867919921875 0.9942626953125002 Q 9.095947265625 0.9484863281250002 9.113525390625 0.8986816406250002 L 9.299560546875 0.3859863281250002 L 9.407958984375 0.3859863281250002 L 9.221923828125 0.8986816406250002 M 10.215087890625 1.2678222656250002 Q 10.08251953125 1.2678222656250002 10.0107421875 1.1986083984375002 Q 9.93896484375 1.1293945312500002 9.93896484375 0.9924316406250002 Q 9.93896484375 0.9550781250000002 9.9444580078125 0.9133300781250002 Q 9.949951171875 0.8715820312500002 9.961669921875 0.8276367187500002 Q 9.988037109375 0.7294921875000002 10.0360107421875 0.6459960937500002 Q 10.083984375 0.5625000000000002 10.146240234375 0.5017089843750002 Q 10.20849609375 0.4409179687500002 10.2802734375 0.4064941406250002 Q 10.35205078125 0.3720703125000002 10.424560546875 0.3720703125000002 Q 10.497802734375 0.3720703125000002 10.5399169921875 0.4064941406250002 Q 10.58203125 0.4409179687500002 10.58203125 0.5031738281250002 Q 10.58203125 0.5383300781250002 10.568115234375 0.5720214843750002 Q 10.55419921875 0.6057128906250002 10.52783203125 0.6357421875000002 Q 10.50146484375 0.6657714843750002 10.4644775390625 0.6917724609375002 Q 10.427490234375 0.7177734375000002 10.38134765625 0.7368164062500002 Q 10.32421875 0.7609863281250002 10.25537109375 0.7730712890625002 Q 10.1865234375 0.7851562500000002 10.0986328125 0.7851562500000002 Q 10.077392578125 0.8444824218750002 10.0653076171875 0.9085693359375002 Q 10.05322265625 0.9726562500000002 10.05322265625 1.0393066406250002 Q 10.05322265625 1.1411132812500002 10.0960693359375 1.1861572265625002 Q 10.138916015625 1.2312011718750002 10.231201171875 1.2312011718750002 Q 10.30810546875 1.2312011718750002 10.377685546875 1.2015380859375002 Q 10.447265625 1.1718750000000002 10.506591796875 1.1235351562500002 Q 10.56591796875 1.0751953125000002 10.614990234375 1.0133056640625002 Q 10.6640625 0.9514160156250002 10.70068359375 0.8869628906250002 L 10.73876953125 0.8195800781250002 L 10.758544921875 0.8334960937500002 L 10.720458984375 0.9008789062500002 Q 10.675048828125 0.9807128906250002 10.6212158203125 1.0480957031250002 Q 10.5673828125 1.1154785156250002 10.5040283203125 1.1641845703125002 Q 10.440673828125 1.2128906250000002 10.3685302734375 1.2403564453125002 Q 10.29638671875 1.2678222656250002 10.215087890625 1.2678222656250002 M 10.445068359375 0.4013671875000002 Q 10.39892578125 0.4013671875000002 10.3509521484375 0.4284667968750002 Q 10.302978515625 0.4555664062500002 10.25830078125 0.5035400390625002 Q 10.213623046875 0.5515136718750002 10.1748046875 0.6166992187500002 Q 10.135986328125 0.6818847656250002 10.107421875 0.7587890625000002 Q 10.18798828125 0.7573242187500002 10.2451171875 0.7445068359375002 Q 10.30224609375 0.7316894531250002 10.3447265625 0.7119140625000002 Q 10.37841796875 0.6965332031250002 10.4102783203125 0.6719970703125002 Q 10.442138671875 0.6474609375000002 10.4666748046875 0.6159667968750002 Q 10.4912109375 0.5844726562500002 10.5062255859375 0.5478515625000002 Q 10.521240234375 0.5112304687500002 10.521240234375 0.4716796875000002 Q 10.521240234375 0.4519042968750002 10.515380859375 0.4387207031250002 Q 10.509521484375 0.4255371093750002 10.499267578125 0.4171142578125002 Q 10.489013671875 0.4086914062500002 10.47509765625 0.4050292968750002 Q 10.461181640625 0.4013671875000002 10.445068359375 0.4013671875000002 M 10.896240234375 0.3859863281250002 L 11.004638671875 0.3859863281250002 L 10.8896484375 0.7009277343750002 Q 10.938720703125 0.6174316406250002 10.984130859375 0.5555419921875002 Q 11.029541015625 0.4936523437500002 11.0745849609375 0.4530029296875002 Q 11.11962890625 0.4123535156250002 11.165771484375 0.3922119140625002 Q 11.2119140625 0.3720703125000002 11.26318359375 0.3720703125000002 Q 11.309326171875 0.3720703125000002 11.34375 0.3870849609375002 Q 11.378173828125 0.4020996093750002 11.401611328125 0.4281005859375002 Q 11.425048828125 0.4541015625000002 11.436767578125 0.4885253906250002 Q 11.448486328125 0.5229492187500002 11.448486328125 0.5610351562500002 Q 11.448486328125 0.6027832031250002 11.4364013671875 0.6518554687500002 Q 11.42431640625 0.7009277343750002 11.406005859375 0.7529296875000002 Q 11.3876953125 0.8049316406250002 11.366455078125 0.8580322265625002 Q 11.34521484375 0.9111328125000002 11.326904296875 0.9602050781250002 Q 11.30859375 1.0092773437500002 11.2965087890625 1.0521240234375002 Q 11.284423828125 1.0949707031250002 11.284423828125 1.1271972656250002 Q 11.284423828125 1.1718750000000002 11.3118896484375 1.2015380859375002 Q 11.33935546875 1.2312011718750002 11.39794921875 1.2312011718750002 Q 11.44482421875 1.2312011718750002 11.4898681640625 1.2095947265625002 Q 11.534912109375 1.1879882812500002 11.5799560546875 1.1451416015625002 Q 11.625 1.1022949218750002 11.6707763671875 1.0374755859375002 Q 11.716552734375 0.9726562500000002 11.764892578125 0.8869628906250002 L 11.802978515625 0.8195800781250002 L 11.82275390625 0.8334960937500002 L 11.78466796875 0.9008789062500002 Q 11.73193359375 0.9931640625000002 11.68359375 1.0623779296875002 Q 11.63525390625 1.1315917968750002 11.5869140625 1.1770019531250002 Q 11.53857421875 1.2224121093750002 11.4884033203125 1.2451171875000002 Q 11.438232421875 1.2678222656250002 11.3818359375 1.2678222656250002 Q 11.335693359375 1.2678222656250002 11.3009033203125 1.2539062500000002 Q 11.26611328125 1.2399902343750002 11.24267578125 1.2158203125000002 Q 11.21923828125 1.1916503906250002 11.20751953125 1.1597900390625002 Q 11.19580078125 1.1279296875000002 11.19580078125 1.0920410156250002 Q 11.19580078125 1.0539550781250002 11.2078857421875 1.0067138671875002 Q 11.219970703125 0.9594726562500002 11.23828125 0.9078369140625002 Q 11.256591796875 0.8562011718750002 11.27783203125 0.8031005859375002 Q 11.299072265625 0.7500000000000002 11.3173828125 0.6998291015625002 Q 11.335693359375 0.6496582031250002 11.3477783203125 0.6046142578125002 Q 11.35986328125 0.5595703125000002 11.35986328125 0.5244140625000002 Q 11.35986328125 0.4995117187500002 11.353271484375 0.4782714843750002 Q 11.3466796875 0.4570312500000002 11.3323974609375 0.4416503906250002 Q 11.318115234375 0.4262695312500002 11.2965087890625 0.4174804687500002 Q 11.27490234375 0.4086914062500002 11.244873046875 0.4086914062500002 Q 11.19873046875 0.4086914062500002 11.15478515625 0.4310302734375002 Q 11.11083984375 0.4533691406250002 11.0665283203125 0.4980468750000002 Q 11.022216796875 0.5427246093750002 10.9764404296875 0.6097412109375002 Q 10.9306640625 0.6767578125000002 10.880126953125 0.7661132812500002 L 10.842041015625 0.8334960937500002 L 10.688232421875 1.2539062500000002 L 10.579833984375 1.2539062500000002 L 10.896240234375 0.3859863281250002" fill="#262626" fill-rule="nonzero"></path></g><g></g></g><defs><clipPath id="SvgjsClipPath52076"><path d=" M 0.7906496403859018 -10.451258313547658 h 10.221679234853196 v 10.201258313547658 h -10.221679234853196 Z"></path></clipPath><clipPath id="SvgjsClipPath5207442f4deb2-af26-4364-a3c5-816b54fa7a8c"><path d=" M 0.7906496403859018 -10.451258313547658 L 11.012328875239099 -10.451258313547658 L 11.012328875239099 -0.25 L 0.7906496403859018 -0.25 Z"></path></clipPath></defs></svg>